<?xml version="1.0" encoding="UTF-8"?>
<svg width="21px" height="12px" viewBox="0 0 21 12" version="1.1" xmlns="http://www.w3.org/2000/svg" xmlns:xlink="http://www.w3.org/1999/xlink">
    <!-- Generator: Sketch 48.2 (47327) - http://www.bohemiancoding.com/sketch -->
    <title>icon-label--new</title>
    <desc>Created with Sketch.</desc>
    <defs></defs>
    <g id="Page-1" stroke="none" stroke-width="1" fill="none" fill-rule="evenodd">
        <g id="icon-label--new">
            <rect id="badge" fill="#FF433E" x="0" y="0" width="21" height="12" rx="2"></rect>
            <path d="M3,8.5 L3,4 L3.83787466,4 L5.73160762,7.18214286 L5.74523159,7.18214286 L5.74523159,4 L6.54904631,4 L6.54904631,8.5 L5.73160762,8.5 L3.81743869,5.31785714 L3.80381471,5.31785714 L3.80381471,8.5 L3,8.5 Z M8.21798366,8.5 L8.21798366,4 L11.1880109,4 L11.1880109,4.70071429 L9.02179837,4.70071429 L9.02179837,5.85785714 L10.9972752,5.85785714 L10.9972752,6.53285714 L9.02179837,6.53285714 L9.02179837,7.79928571 L11.1880109,7.79928571 L11.1880109,8.5 L8.21798366,8.5 Z M13.2588556,8.5 L12.3460491,4 L13.1634878,4 L13.8106267,7.16928571 L13.8242507,7.16928571 L14.9550409,4 L15.4114442,4 L16.5354224,7.16928571 L16.5490463,7.16928571 L17.1961853,4 L18,4 L17.0871935,8.5 L16.2493188,8.5 L15.1730245,5.41428571 L15.1594006,5.41428571 L14.1035423,8.5 L13.2588556,8.5 Z" id="NEW" fill="#FFFFFF"></path>
        </g>
    </g>
</svg>