<?xml version="1.0" encoding="UTF-8"?>
<svg viewBox="0 0 14 12" version="1.1" xmlns="http://www.w3.org/2000/svg" xmlns:xlink="http://www.w3.org/1999/xlink">
    <!-- Generator: Sketch 48.2 (47327) - http://www.bohemiancoding.com/sketch -->
    <title>icon-mail</title>
    <desc>Created with Sketch.</desc>
    <defs></defs>
    <g stroke="none" stroke-width="1" fill="none" fill-rule="evenodd">
        <path d="M1.75,0 L11.75,0 C12.7164983,-1.94289029e-16 13.5,0.783501688 13.5,1.75 L13.5,9.75 C13.5,10.7164983 12.7164983,11.5 11.75,11.5 L1.75,11.5 C0.783501688,11.5 1.11022302e-16,10.7164983 0,9.75 L0,1.75 C-1.11022302e-16,0.783501688 0.783501688,0 1.75,0 Z M1.75,1.5 C1.61192881,1.5 1.5,1.61192881 1.5,1.75 L1.5,9.75 C1.5,9.88807119 1.61192881,10 1.75,10 L11.75,10 C11.8880712,10 12,9.88807119 12,9.75 L12,1.75 C12,1.61192881 11.8880712,1.5 11.75,1.5 L1.75,1.5 Z M9.33397485,3.12596228 C9.67862137,2.89619793 10.1442734,2.98932834 10.3740377,3.33397485 C10.6038021,3.67862137 10.5106717,4.14427338 10.1660251,4.37403772 L7.16602515,6.37403772 C6.91410059,6.54198743 6.58589941,6.54198743 6.33397485,6.37403772 L3.33397485,4.37403772 C2.98932834,4.14427338 2.89619793,3.67862137 3.12596228,3.33397485 C3.35572662,2.98932834 3.82137863,2.89619793 4.16602515,3.12596228 L6.75,4.84861218 L9.33397485,3.12596228 Z" fill="#000000" fill-rule="nonzero"></path>
    </g>
</svg>
